<?xml version="1.0" standalone="no"?>
<!DOCTYPE svg PUBLIC "-//W3C//DTD SVG 20010904//EN"
 "http://www.w3.org/TR/2001/REC-SVG-20010904/DTD/svg10.dtd">
<svg version="1.0" xmlns="http://www.w3.org/2000/svg"
 width="167.000000pt" height="167.000000pt" viewBox="0 0 167.000000 167.000000"
 preserveAspectRatio="xMidYMid meet">
<metadata>
Created by potrace 1.14, written by Peter Selinger 2001-2017
</metadata>
<g transform="translate(0.000000,167.000000) scale(0.100000,-0.100000)"
fill="#000000" stroke="none">
<path d="M1505 1151 c-3 -6 -19 -11 -35 -11 -24 0 -34 -8 -52 -40 -13 -22 -28
-40 -34 -40 -7 0 -14 -7 -17 -15 -4 -8 -41 -40 -84 -71 -43 -32 -98 -76 -123
-99 -25 -22 -60 -47 -77 -54 -18 -7 -33 -17 -33 -21 0 -5 -15 -12 -32 -15 -18
-4 -38 -11 -44 -16 -19 -16 -164 -59 -197 -59 -18 0 -50 -5 -72 -10 -54 -13
-267 -13 -332 -1 -29 6 -92 30 -140 53 -71 35 -91 50 -107 80 -21 41 -18 60
17 83 54 35 301 40 340 7 20 -17 22 -53 5 -70 -14 -14 -164 -17 -172 -3 -9 15
40 30 81 24 29 -4 42 -1 53 13 14 16 9 17 -94 12 -80 -5 -112 -10 -124 -22
-21 -20 -11 -29 58 -55 75 -29 148 -27 216 4 49 23 54 28 54 57 0 37 -29 70
-76 89 -16 6 -87 12 -159 12 -152 1 -234 -17 -261 -58 -21 -32 -15 -102 11
-137 23 -30 96 -77 203 -130 77 -39 91 -42 184 -47 107 -6 131 -19 79 -41 -17
-7 -36 -18 -42 -26 -9 -12 -5 -14 26 -14 27 0 47 8 72 30 27 24 43 30 82 30
42 0 50 -4 75 -35 18 -22 37 -35 52 -35 29 0 32 16 4 23 -26 7 -28 52 -2 54
39 1 194 44 247 68 75 33 87 33 85 0 0 -3 11 -25 25 -49 14 -23 25 -52 25 -64
0 -13 6 -22 15 -22 19 0 19 19 1 56 -8 16 -18 50 -21 77 -6 40 -5 47 9 47 9 0
21 -12 26 -27 6 -16 22 -54 37 -85 25 -53 31 -58 57 -55 41 3 42 19 3 37 -24
12 -35 26 -47 62 -8 26 -18 50 -22 54 -15 14 -7 59 15 94 43 66 184 215 213
224 11 3 42 27 68 52 59 56 61 87 4 92 -20 2 -39 -2 -43 -7z m60 -11 c-11 -5
-29 -9 -40 -9 -17 -1 -17 1 -5 9 8 5 26 9 40 9 23 0 23 -1 5 -9z m-80 -40 c-3
-5 -10 -10 -16 -10 -5 0 -9 5 -9 10 0 6 7 10 16 10 8 0 12 -4 9 -10z m-63 -60
c-2 -16 -8 -30 -13 -30 -12 0 -11 17 1 41 15 26 17 24 12 -11z m-1292 -110 c0
-5 -7 -10 -16 -10 -8 0 -12 5 -9 10 3 6 10 10 16 10 5 0 9 -4 9 -10z m1142
-60 c-4 -33 -16 -43 -41 -35 -25 8 -27 28 -5 50 24 23 50 15 46 -15z m-1179
-14 c6 -16 -2 -28 -14 -20 -12 7 -11 34 0 34 5 0 11 -6 14 -14z m980 -90 c22
-17 22 -33 -2 -46 -34 -17 -61 -12 -61 11 0 19 25 48 40 48 3 0 13 -6 23 -13z
m-898 -6 c3 -5 1 -10 -4 -10 -6 0 -11 5 -11 10 0 6 2 10 4 10 3 0 8 -4 11 -10z
m125 -60 c0 -13 -20 -13 -40 0 -12 8 -9 10 13 10 15 0 27 -4 27 -10z m588 4
c24 -7 31 -44 8 -44 -8 0 -21 -3 -30 -6 -13 -5 -16 1 -16 25 0 33 2 34 38 25z
m-390 -55 c4 -20 -18 -30 -47 -22 -12 3 -21 13 -21 25 0 16 6 19 32 16 21 -2
34 -9 36 -19z m202 1 c0 -16 -7 -20 -30 -20 -23 0 -30 4 -30 20 0 16 7 20 30
20 23 0 30 -4 30 -20z"/>
</g>
</svg>
